<?xml version="1.0" encoding="UTF-8"?><svg id="Livello_1" xmlns="http://www.w3.org/2000/svg" viewBox="0 0 1215.2 1125.29"><path d="M857.86,104.69c-.63-13.85-.61-22.55,1.1-29.97,2.46-10.66,172.03-3.18,184-4.92,84.65-12.33,171.15,40.18,171.3,131.24l.95,579.96c.13,79.81-63.2,138.25-141.56,138.28l-930.81.24C64.12,919.54-.29,861.5,0,780.9L2.09,193.29c.32-88.43,91.87-135.58,170.82-123.36,10.9,1.69,175.43-4.56,181.85.83,12.26,10.3-15.21,96.51,57.37,103.5,30.18,2.91,60.78-22.67,61.24-60.17.16-13.36-3.73-31.31,5.5-44.88l258.97.51c7.73,8.07,6.23,28.27,5.37,38.31-3.19,37.51,24,65.52,55.14,66.18,35.76.76,61.38-27.98,59.5-69.53ZM1077.49,862.36c49.12-4.01,77.18-38.03,79.03-81.89l-.18-509.95-1096.85.59-.48,510.07c.84,44.32,31.69,76.8,76.47,81.11l942.01.07Z"/><path d="M834.94,112.42c0,26.14-17.26,39.53-35.28,39.05-18.41-.49-33.77-15.35-33.78-36.65l-.05-76.38c-.01-23.51,15.05-37.62,33.08-38.26,21.67-.76,36.03,14.28,36.03,38.05v74.18Z"/><path d="M450.74,111.49c.06,24.75-15.64,39.46-33.67,40-46.09,1.37-35.85-63.71-35.27-113.58.28-23.85,14.32-38.83,35.95-37.86,18.02.8,32.75,14.97,32.81,38.4l.18,73.04Z"/><path d="M207.79,351.84c0-10.44,5.13-15.66,15.39-15.66s15.39,5.22,15.39,15.66v272.31h27.07c10.26,0,15.39,5.13,15.39,15.39s-5.13,15.66-15.39,15.66h-27.07v78.03c0,10.26-5.13,15.39-15.39,15.39s-15.39-5.13-15.39-15.39v-78.03h-8.23c-10.26,0-15.39-5.22-15.39-15.66s5.13-15.39,15.39-15.39h8.23v-272.31Z"/><path d="M428.87,587.53c0-10.26,5.04-15.39,15.13-15.39s15.39,5.13,15.39,15.39l.8,121.29v1.06l.27,21.76c0,10.26-5.13,15.39-15.39,15.39-8.85,0-13.89-4.25-15.13-12.74-46.36,20.88-81.13,20.35-104.31-1.59-23.71-23-33.8-71.66-30.26-145.98.17-9.91,5.48-14.77,15.92-14.6,9.91.36,14.77,5.66,14.6,15.92-3.01,65.29,4.07,106.08,21.23,122.36,14.51,14.16,41.94,10.79,82.28-10.09l-.53-112.8Z"/><path d="M488.32,589.92c0-10.26,5.13-15.39,15.39-15.39s15.39,5.13,15.39,15.39v22.83c8.67-11.32,18.4-20.44,29.2-27.34,24.06-14.68,50.78-16.1,80.16-4.25.71.36,1.33.62,1.86.8,9.55,3.89,12.3,10.62,8.23,20.17-3.89,9.38-10.53,12.12-19.91,8.23-.71-.17-1.24-.44-1.59-.8-20-7.78-37.51-7.08-52.55,2.12-16.81,10.44-31.68,31.14-44.59,62.11l-.8,1.59v60.51c0,10.09-5.13,15.13-15.39,15.13s-15.39-5.04-15.39-15.13v-145.98Z"/><path d="M694.8,734.3c0,10.26-5.04,15.39-15.13,15.39-10.26.36-15.39-4.69-15.39-15.13l-.8-120.76c-.36-.71-.36-1.41,0-2.12l-.27-21.5c0-10.26,5.13-15.39,15.39-15.39,8.49,0,13.54,4.34,15.13,13.01,46.53-21.05,81.39-20.52,104.57,1.59,23.53,22.65,33.71,71.22,30.52,145.71-.36,10.26-5.66,15.22-15.92,14.86-10.26-.53-15.22-5.93-14.86-16.19,2.83-65.11-4.16-105.9-20.97-122.36-15.04-14.15-42.64-10.7-82.81,10.35l.53,112.54Z"/><path d="M1006.92,588.06c0-10.26,5.04-15.39,15.13-15.39,10.26-.17,15.39,4.87,15.39,15.13l.8,78.83c5.31,6.55,5.4,13.01.27,19.38l-.27.27.27,28.66v327.56c.71,14.51-2.92,28.31-10.88,41.4-8.14,13.09-19.11,23.18-32.91,30.26-13.8,7.43-28.66,11.15-44.59,11.15s-30.79-3.72-44.59-11.15c-13.98-7.08-24.95-17.16-32.91-30.26-7.96-12.92-11.59-26.99-10.88-42.2.53-10.09,5.93-14.95,16.19-14.6,9.91.53,14.77,5.93,14.6,16.19-.53,8.49,1.59,16.72,6.37,24.68,4.78,7.78,11.77,14.15,20.97,19.11,9.55,4.95,19.64,7.43,30.26,7.43s20.88-2.48,30.26-7.43c8.85-4.6,15.83-10.97,20.97-19.11,4.6-7.79,6.81-16.02,6.64-24.68l-.27-.8v-324.37c-17.7,14.69-35.21,24.15-52.55,28.4-18.4,4.42-34.5,3.63-48.31-2.39-15.57-6.37-27.6-18.22-36.1-35.57-14.33-28.84-16.72-70.07-7.17-123.68,1.77-10.09,7.7-14.24,17.78-12.47,10.09,1.59,14.33,7.52,12.74,17.78-8.67,47.24-7.26,82.28,4.25,105.1,4.95,10.44,11.77,17.25,20.44,20.44,8.14,3.54,17.69,3.89,28.66,1.06,20.52-5.13,40.52-18.93,59.98-41.4l-.53-87.32Z"/></svg>