<?xml version="1.0" encoding="UTF-8"?>
<svg id="Livello_1" xmlns="http://www.w3.org/2000/svg" version="1.1" viewBox="0 0 1215.2 1125.3">
  <!-- Generator: Adobe Illustrator 30.1.0, SVG Export Plug-In . SVG Version: 2.1.1 Build 136)  -->
  <defs>
    <style>
      .st0 {
        fill: #006837;
      }
    </style>
  </defs>
  <path class="st0" d="M857.9,104.7c-.6-13.9-.6-22.6,1.1-30,2.5-10.7,172-3.2,184-4.9,84.6-12.3,171.1,40.2,171.3,131.2l.9,580c.1,79.8-63.2,138.3-141.6,138.3l-930.8.2C64.1,919.5-.3,861.5,0,780.9L2.1,193.3c.3-88.4,91.9-135.6,170.8-123.4,10.9,1.7,175.4-4.6,181.8.8,12.3,10.3-15.2,96.5,57.4,103.5,30.2,2.9,60.8-22.7,61.2-60.2.2-13.4-3.7-31.3,5.5-44.9l259,.5c7.7,8.1,6.2,28.3,5.4,38.3-3.2,37.5,24,65.5,55.1,66.2,35.8.8,61.4-28,59.5-69.5ZM1077.5,862.4c49.1-4,77.2-38,79-81.9l-.2-509.9-1096.8.6-.5,510.1c.8,44.3,31.7,76.8,76.5,81.1h942Z"/>
  <path class="st0" d="M834.9,112.4c0,26.1-17.3,39.5-35.3,39-18.4-.5-33.8-15.3-33.8-36.7V38.4c0-23.5,15-37.6,33-38.3,21.7-.8,36,14.3,36,38.1v74.2Z"/>
  <path class="st0" d="M450.7,111.5c0,24.8-15.6,39.5-33.7,40-46.1,1.4-35.9-63.7-35.3-113.6.3-23.8,14.3-38.8,35.9-37.9,18,.8,32.7,15,32.8,38.4l.2,73Z"/>
  <g>
    <path class="st0" d="M207.8,351.8c0-10.4,5.1-15.7,15.4-15.7s15.4,5.2,15.4,15.7v272.3h27.1c10.3,0,15.4,5.1,15.4,15.4s-5.1,15.7-15.4,15.7h-27.1v78c0,10.3-5.1,15.4-15.4,15.4s-15.4-5.1-15.4-15.4v-78h-8.2c-10.3,0-15.4-5.2-15.4-15.7s5.1-15.4,15.4-15.4h8.2v-272.3Z"/>
    <path class="st0" d="M428.9,587.5c0-10.3,5-15.4,15.1-15.4s15.4,5.1,15.4,15.4l.8,121.3v1.1l.3,21.8c0,10.3-5.1,15.4-15.4,15.4s-13.9-4.2-15.1-12.7c-46.4,20.9-81.1,20.3-104.3-1.6-23.7-23-33.8-71.7-30.3-146,.2-9.9,5.5-14.8,15.9-14.6,9.9.4,14.8,5.7,14.6,15.9-3,65.3,4.1,106.1,21.2,122.4,14.5,14.2,41.9,10.8,82.3-10.1l-.5-112.8Z"/>
    <path class="st0" d="M488.3,589.9c0-10.3,5.1-15.4,15.4-15.4s15.4,5.1,15.4,15.4v22.8c8.7-11.3,18.4-20.4,29.2-27.3,24.1-14.7,50.8-16.1,80.2-4.2.7.4,1.3.6,1.9.8,9.6,3.9,12.3,10.6,8.2,20.2-3.9,9.4-10.5,12.1-19.9,8.2-.7-.2-1.2-.4-1.6-.8-20-7.8-37.5-7.1-52.6,2.1-16.8,10.4-31.7,31.1-44.6,62.1l-.8,1.6v60.5c0,10.1-5.1,15.1-15.4,15.1s-15.4-5-15.4-15.1v-146Z"/>
    <path class="st0" d="M694.8,734.3c0,10.3-5,15.4-15.1,15.4-10.3.4-15.4-4.7-15.4-15.1l-.8-120.8c-.4-.7-.4-1.4,0-2.1l-.3-21.5c0-10.3,5.1-15.4,15.4-15.4s13.5,4.3,15.1,13c46.5-21.1,81.4-20.5,104.6,1.6,23.5,22.7,33.7,71.2,30.5,145.7-.4,10.3-5.7,15.2-15.9,14.9-10.3-.5-15.2-5.9-14.9-16.2,2.8-65.1-4.2-105.9-21-122.4-15-14.2-42.6-10.7-82.8,10.4l.5,112.5Z"/>
    <path class="st0" d="M1006.9,588.1c0-10.3,5-15.4,15.1-15.4,10.3-.2,15.4,4.9,15.4,15.1l.8,78.8c5.3,6.5,5.4,13,.3,19.4l-.3.3.3,28.7v327.6c.7,14.5-2.9,28.3-10.9,41.4-8.1,13.1-19.1,23.2-32.9,30.3-13.8,7.4-28.7,11.1-44.6,11.1s-30.8-3.7-44.6-11.1c-14-7.1-24.9-17.2-32.9-30.3-8-12.9-11.6-27-10.9-42.2.5-10.1,5.9-15,16.2-14.6,9.9.5,14.8,5.9,14.6,16.2-.5,8.5,1.6,16.7,6.4,24.7,4.8,7.8,11.8,14.2,21,19.1,9.6,5,19.6,7.4,30.3,7.4s20.9-2.5,30.3-7.4c8.8-4.6,15.8-11,21-19.1,4.6-7.8,6.8-16,6.6-24.7l-.3-.8v-324.4c-17.7,14.7-35.2,24.2-52.6,28.4-18.4,4.4-34.5,3.6-48.3-2.4-15.6-6.4-27.6-18.2-36.1-35.6-14.3-28.8-16.7-70.1-7.2-123.7,1.8-10.1,7.7-14.2,17.8-12.5,10.1,1.6,14.3,7.5,12.7,17.8-8.7,47.2-7.3,82.3,4.2,105.1,5,10.4,11.8,17.3,20.4,20.4,8.1,3.5,17.7,3.9,28.7,1.1,20.5-5.1,40.5-18.9,60-41.4l-.5-87.3Z"/>
  </g>
</svg>