<?xml version="1.0" encoding="UTF-8"?><svg id="Livello_1" xmlns="http://www.w3.org/2000/svg" viewBox="0 0 2296.55 941.01"><path d="M513.85,204.2v-102.91h308.73v102.91h-308.73ZM704.28,516.99c-38.36,0-68.35-10.94-89.95-32.82-21.61-21.88-32.41-51.45-32.41-88.73V0h126.41v388.15c0,6.48,2.29,12.03,6.89,16.61,4.58,4.6,10.13,6.89,16.61,6.89h90.76v105.34h-118.31Z"/><path d="M1025.97,526.71c-42.68,0-79.55-8.38-110.61-25.12-31.07-16.74-54.98-39.02-71.71-66.85-16.75-27.82-25.12-59.28-25.12-94.4V101.29h125.6v235.81c0,14.59,3.51,27.96,10.53,40.11,7.01,12.15,16.74,21.88,29.17,29.17,12.42,7.29,26.2,10.94,41.33,10.94s28.77-3.65,40.92-10.94c12.15-7.29,21.74-17.02,28.77-29.17,7.02-12.15,10.53-25.52,10.53-40.11V101.29h126.41v239.05c0,35.12-8.24,66.59-24.72,94.4-16.49,27.83-40.11,50.11-70.9,66.85-30.79,16.74-67.54,25.12-110.21,25.12Z"/><path d="M1239.9,516.99V223.65c0-37.81,10.8-67.52,32.41-89.14,21.6-21.6,51.58-32.41,89.95-32.41h121.55v102.1h-89.95c-7.57,0-14.05,2.57-19.45,7.7-5.4,5.14-8.1,11.75-8.1,19.85v285.23h-126.41Z"/><path d="M1458.68,516.99v-239.05c0-34.57,8.37-65.9,25.12-94,16.74-28.08,40.64-50.37,71.71-66.85,31.06-16.47,67.93-24.71,110.61-24.71s80.08,8.24,110.61,24.71c30.51,16.49,54.01,38.77,70.5,66.85,16.47,28.1,24.72,59.43,24.72,94v239.05h-126.41v-235.81c0-14.58-3.52-27.82-10.53-39.71-7.03-11.88-16.61-21.6-28.77-29.17-12.15-7.56-26.07-11.34-41.73-11.34s-28.91,3.65-41.33,10.94c-12.43,7.29-22.16,17.16-29.17,29.58-7.03,12.43-10.53,25.66-10.53,39.71v235.81h-124.79Z"/><path d="M2028.33,681.49v-162.07c-30.79-7.02-56.86-19.17-78.2-36.46-21.35-17.28-37.68-38.21-49.03-62.8-11.34-24.58-17.02-51.18-17.02-79.82V101.29h125.6v235.81c0,14.05,3.51,27.29,10.53,39.71,7.02,12.43,16.61,22.28,28.77,29.58,12.15,7.29,26.06,10.94,41.73,10.94s28.77-3.77,40.92-11.34c12.15-7.56,21.74-17.42,28.77-29.58,7.02-12.15,10.54-25.25,10.54-39.3V101.29h125.6v239.05c0,28.1-5.67,54.43-17.02,79.01-11.34,24.59-27.55,45.52-48.62,62.8-21.07,17.3-46.73,29.45-76.98,36.46v162.88h-125.6Z"/><path d="M366.57,105.29c-.33-7.23-.32-11.77.57-15.64,1.28-5.56,8.73-1.66,14.97-2.57,44.17-6.43,89.3,20.96,89.38,68.48l.49,302.6c.07,41.64-32.97,72.13-73.86,72.15l-323.6.13C33.46,530.45-.15,500.16,0,458.11L1.09,151.52c.16-46.14,47.93-70.74,89.13-64.37,5.69.88,10.5-2.38,13.85.43,6.4,5.38-7.94,50.35,29.93,54,15.74,1.52,31.71-11.83,31.95-31.39.09-6.97-1.95-16.34,2.87-23.42l135.12.27c4.03,4.21,3.25,14.75,2.8,19.99-1.66,19.57,12.52,34.18,28.77,34.53,18.66.4,32.03-14.6,31.05-36.28ZM400.13,500.61c25.63-2.09,40.27-19.84,41.23-42.73l-.09-266.07-410.23.31-.25,266.13c.44,23.12,16.54,40.07,39.9,42.32l329.44.04Z"/><path d="M354.61,109.32c0,13.64-9,20.62-18.41,20.37-9.61-.25-17.62-8.01-17.63-19.12l-.02-39.85c0-12.27,7.85-19.63,17.26-19.96,11.31-.4,18.8,7.45,18.8,19.85v38.71Z"/><path d="M154.15,108.84c.03,12.92-8.16,20.59-17.57,20.87-24.05.72-18.71-33.24-18.4-59.26.15-12.44,7.47-20.26,18.76-19.76,9.4.42,17.09,7.81,17.12,20.04l.09,38.11Z"/><path d="M401,372.76c-18.53,1.19-35.23,1.21-53.7-.5-.78-18.58-1.3-34.77.48-52.79,18.02-1.29,34.17-1.1,52.35-.08,2.27,17.16,1.01,31.76.86,53.37Z"/><path d="M401.25,284.61c-17.46,3.03-33.65,1.34-53.16.97-2.79-17.51-.94-33.81-.98-53.02l53.2-.28c2,17.22.78,31.13.94,52.34Z"/><path d="M216.43,372.88c-19.05,1.22-34.55.62-52.89-.1-1.87-18.05-1.05-33.65-.33-53.29,18.15-1.08,35.17-1.24,53.3-.08.79,18.56,1.28,32.72-.09,53.46Z"/><path d="M216.47,459.85c-17.33,2.25-33.41.21-52.64.63-1.98-17.88-1.84-34.73-.33-53.42,18.53-1.28,34.17-1.06,52.64.12,1.89,17.49,1.11,33.31.34,52.67Z"/><path d="M124.31,459.53c-17.57,2.22-33.65.95-52.43.81-2.75-18.34-1.51-35.04-.8-53.37l52.36-.32c3.11,17.33,1.81,33.5.87,52.88Z"/><path d="M309.36,458.75c-18.28,3.72-35.86,1.92-54.01.97-1.24-18.64-1.18-33.05-.13-52.02,17.68-2.57,34.44-1.11,53.42-.88l.72,51.93Z"/><path d="M309.24,372.49l-52.99.61c-3.06-17.81-1.8-33.78-.82-53.28,17.42-2.14,33.76-.81,52.38-.81,2.86,17.38.97,32.04,1.44,53.48Z"/><path d="M124.18,373.05l-53.4-.39.13-52.22c17.95-3.28,35.21-1.76,53.43-.79,1.11,18.7,1.49,32.68-.16,53.4Z"/><path d="M216.97,284.73c-19.15,2.54-34.94,1.8-53.61.31-1.24-18.88-1.52-34.22.15-52.74l52.61-.1c2.04,17.45.84,31.1.84,52.53Z"/><path d="M309.4,284.45c-18.88,3.43-34.47,1.59-53.54.96-1.83-18.8-2.44-34.99.25-53.25,19.07-.37,34.33-1.31,52.49.46l.8,51.83Z"/><path d="M1097.08,747.41c3.14,4.43,2.58,8.17-1.66,11.22-4.34,3.32-8.08,2.77-11.22-1.66-1.57-2.12-4.2-3.83-7.89-5.12-3.97-1.2-7.94-1.38-11.91-.55-3.88.83-6.88,2.4-9,4.71-1.85,1.85-2.68,3.74-2.49,5.68.18,4.15,2.24,7.32,6.16,9.49,3.92,2.17,8.24,4.13,12.95,5.89,6.18,2.49,12.14,5.38,17.87,8.66,5.72,3.28,9.69,8.56,11.91,15.86,1.48,5.08.69,9.69-2.35,13.85-2.77,3.69-6.83,6.56-12.19,8.59-4.25,1.48-9.42,2.4-15.51,2.77-6.09.09-12.21-.83-18.35-2.77-6.14-1.94-11.15-5.31-15.03-10.11-3.32-4.06-2.96-7.8,1.11-11.22,4.15-3.32,7.94-2.95,11.36,1.11,4.06,5.08,10.89,7.43,20.5,7.06,3.79-.09,7.2-.74,10.25-1.94,2.4-.83,4.02-1.8,4.85-2.91-1.11-3.51-3.65-6.28-7.62-8.31-3.97-2.03-8.17-3.92-12.6-5.68-7.2-2.77-13.78-6.05-19.73-9.83-5.96-3.78-9.16-10.39-9.62-19.8-.28-6.55,2.08-12.42,7.06-17.59,4.43-4.52,10.15-7.57,17.17-9.14,6.74-1.48,13.38-1.2,19.94.83,6.92,2.22,12.28,5.86,16.06,10.94Z"/><path d="M1117.3,619.72c0-5.35,2.63-8.03,7.89-8.03s8.03,2.68,8.03,8.03l.42,151.78c5.17-12.37,10.43-21.69,15.79-27.97,6.18-7.38,12.79-11.03,19.8-10.94,7.11.37,13.48,4.39,19.11,12.05,9.05,12.28,17.63,36.42,25.76,72.43,1.11,5.26-.92,8.4-6.09,9.42-5.26.92-8.45-1.06-9.56-5.96-7.48-33.51-15.14-55.67-22.99-66.47-2.68-3.6-4.89-5.4-6.65-5.4-1.94,0-4.29,1.75-7.06,5.26-8.77,10.25-18.23,32.54-28.39,66.89-1.48,4.89-4.8,6.69-9.97,5.4-4.15-1.01-6.05-3.78-5.68-8.31v-.42l-.42-197.75Z"/><path d="M1218.25,701.01c-1.2-5.17.78-8.35,5.96-9.56,3.05-.64,5.58.14,7.62,2.35,1.38-1.2,3.05-1.89,4.99-2.08,5.35-.28,8.12,2.26,8.31,7.62-.92,5.45-3.19,10.16-6.79,14.13-.28.28-.51.51-.69.69-.19.19-.37.37-.55.55-1.11.74-2.26,1.25-3.46,1.52-2.59.65-4.94.28-7.06-1.11-1.38-.83-2.63-1.98-3.74-3.46-2.03-2.4-3.56-5.95-4.57-10.66ZM1223.51,741.45c0-5.35,2.68-8.03,8.03-8.03s8.03,2.68,8.03,8.03v76.58c0,5.36-2.68,8.03-8.03,8.03s-8.03-2.68-8.03-8.03v-76.58Z"/><path d="M1348,755.85c4.06,3.32,4.43,7.11,1.11,11.36-3.42,4.25-7.16,4.62-11.22,1.11-14.31-11.72-27.65-17.59-40.02-17.59-4.15,0-7.89.74-11.22,2.22-3.14,1.48-5.54,3.28-7.2,5.4-2.49,3.23-3.74,6.83-3.74,10.8v34.21h48.88c5.35,0,8.03,2.68,8.03,8.03s-2.68,8.03-8.03,8.03h-48.88l.28,103.59c0,5.35-2.68,8.03-8.03,8.03s-8.03-2.68-8.03-8.03l-.14-103.59c-4.43-.74-6.65-3.41-6.65-8.03s2.22-7.06,6.65-7.89l-.14-34.34c0-7.85,2.45-14.82,7.34-20.91,3.6-4.34,8.03-7.66,13.29-9.97,5.26-2.31,11.12-3.46,17.59-3.46,7.11,0,14.91,1.64,23.4,4.92,8.49,3.28,17.4,8.66,26.73,16.13Z"/><path d="M1369.74,618.06c0-5.45,2.68-8.17,8.03-8.17s8.03,2.72,8.03,8.17v142.08h14.12c5.35,0,8.03,2.68,8.03,8.03s-2.68,8.17-8.03,8.17h-14.12v40.71c0,5.36-2.68,8.03-8.03,8.03s-8.03-2.68-8.03-8.03v-40.71h-4.29c-5.36,0-8.03-2.72-8.03-8.17s2.68-8.03,8.03-8.03h4.29v-142.08Z"/><path d="M1475.95,747.41c3.14,4.43,2.58,8.17-1.66,11.22-4.34,3.32-8.08,2.77-11.22-1.66-1.57-2.12-4.2-3.83-7.89-5.12-3.97-1.2-7.94-1.38-11.91-.55-3.88.83-6.88,2.4-9,4.71-1.85,1.85-2.68,3.74-2.49,5.68.18,4.15,2.24,7.32,6.16,9.49,3.92,2.17,8.24,4.13,12.95,5.89,6.18,2.49,12.14,5.38,17.87,8.66,5.72,3.28,9.69,8.56,11.91,15.86,1.48,5.08.69,9.69-2.35,13.85-2.77,3.69-6.83,6.56-12.19,8.59-4.25,1.48-9.42,2.4-15.51,2.77-6.09.09-12.21-.83-18.35-2.77-6.14-1.94-11.15-5.31-15.03-10.11-3.32-4.06-2.96-7.8,1.11-11.22,4.15-3.32,7.94-2.95,11.36,1.11,4.06,5.08,10.89,7.43,20.5,7.06,3.79-.09,7.2-.74,10.25-1.94,2.4-.83,4.02-1.8,4.85-2.91-1.11-3.51-3.65-6.28-7.62-8.31-3.97-2.03-8.17-3.92-12.6-5.68-7.2-2.77-13.78-6.05-19.73-9.83-5.96-3.78-9.16-10.39-9.62-19.8-.28-6.55,2.08-12.42,7.06-17.59,4.43-4.52,10.15-7.57,17.17-9.14,6.74-1.48,13.38-1.2,19.94.83,6.92,2.22,12.28,5.86,16.06,10.94Z"/><path d="M1563.74,742.14c0-5.35,2.68-8.03,8.03-8.03s8.03,2.68,8.03,8.03c0,31.85,2.22,53.18,6.65,63.98.92,2.49,1.57,3.74,1.94,3.74-.46-.09-.28-.51.55-1.25,5.54-5.17,12.05-17.03,19.53-35.59.46-2.95,2.12-5.03,4.99-6.23,1.11-.46,2.12-.65,3.05-.55.92-.09,1.98.09,3.19.55,2.77,1.2,4.43,3.28,4.99,6.23,7.38,18.56,13.89,30.42,19.53,35.59.74.74.92,1.16.55,1.25.28,0,.92-1.25,1.94-3.74,4.43-10.8,6.65-32.13,6.65-63.98,0-5.35,2.68-8.03,8.03-8.03s8.03,2.68,8.03,8.03c-.19,34.07-2.82,57.43-7.89,70.07-2.86,7.02-6.69,11.31-11.49,12.88-5.73,1.75-11.31.19-16.76-4.71-5.36-4.99-10.94-13.62-16.76-25.9-5.73,12.19-11.26,20.82-16.62,25.9-5.54,4.89-11.13,6.46-16.76,4.71-4.89-1.57-8.72-5.86-11.49-12.88-5.17-12.65-7.8-36.01-7.89-70.07Z"/><path d="M1681.17,701.01c-1.2-5.17.78-8.35,5.96-9.56,3.05-.64,5.58.14,7.62,2.35,1.38-1.2,3.05-1.89,4.99-2.08,5.35-.28,8.12,2.26,8.31,7.62-.92,5.45-3.19,10.16-6.79,14.13-.28.28-.51.51-.69.69-.19.19-.37.37-.55.55-1.11.74-2.26,1.25-3.46,1.52-2.59.65-4.94.28-7.06-1.11-1.38-.83-2.63-1.98-3.74-3.46-2.03-2.4-3.56-5.95-4.57-10.66ZM1686.43,741.45c0-5.35,2.68-8.03,8.03-8.03s8.03,2.68,8.03,8.03v76.58c0,5.36-2.68,8.03-8.03,8.03s-8.03-2.68-8.03-8.03v-76.58Z"/><path d="M1731.99,618.06c0-5.45,2.68-8.17,8.03-8.17s8.03,2.72,8.03,8.17v142.08h14.12c5.35,0,8.03,2.68,8.03,8.03s-2.68,8.17-8.03,8.17h-14.12v40.71c0,5.36-2.68,8.03-8.03,8.03s-8.03-2.68-8.03-8.03v-40.71h-4.29c-5.36,0-8.03-2.72-8.03-8.17s2.68-8.03,8.03-8.03h4.29v-142.08Z"/><path d="M1777.27,619.72c0-5.35,2.63-8.03,7.89-8.03s8.03,2.68,8.03,8.03l.42,151.78c5.17-12.37,10.43-21.69,15.79-27.97,6.18-7.38,12.79-11.03,19.8-10.94,7.11.37,13.48,4.39,19.11,12.05,9.05,12.28,17.63,36.42,25.76,72.43,1.11,5.26-.92,8.4-6.09,9.42-5.26.92-8.45-1.06-9.56-5.96-7.48-33.51-15.14-55.67-22.99-66.47-2.68-3.6-4.89-5.4-6.65-5.4-1.94,0-4.29,1.75-7.06,5.26-8.77,10.25-18.23,32.54-28.39,66.89-1.48,4.89-4.8,6.69-9.97,5.4-4.15-1.01-6.05-3.78-5.68-8.31v-.42l-.42-197.75Z"/><path d="M1948.56,618.06c0-5.45,2.68-8.17,8.03-8.17s8.03,2.72,8.03,8.17v199.69c0,5.35-2.68,8.03-8.03,8.03s-8.03-2.68-8.03-8.03v-199.69Z"/><path d="M2069.32,761.81c3.05,9.05,4.04,17.4,2.98,25.07-1.06,7.66-3.44,14.26-7.13,19.8-4.25,6.28-9.51,10.99-15.79,14.13-6.37,3.42-13.16,5.03-20.36,4.85-14.03-.46-25.48-6.92-34.34-19.39-6.19-8.68-9-17.47-8.45-26.38.55-8.91,3.19-16.92,7.89-24.03,4.43-6.65,10.11-12,17.03-16.06,7.01-4.15,14.45-6.18,22.3-6.09,7.01.09,13.73,2.28,20.15,6.58,6.42,4.29,11.61,11.33,15.58,21.12l.14.42ZM2051.73,797.81c5.63-8.31,6.46-18.51,2.49-30.6-4.71-11.54-11.73-17.4-21.05-17.59-4.8,0-9.42,1.34-13.85,4.02-4.89,2.86-8.82,6.56-11.77,11.08-3.05,4.62-4.76,9.76-5.12,15.44-.37,5.68,1.38,11.29,5.26,16.83,5.91,8.31,13.16,12.51,21.74,12.6,4.34.19,8.49-.78,12.46-2.91,4.06-2.03,7.34-4.99,9.83-8.86Z"/><path d="M2087.04,744.22c-2.03-4.99-.6-8.49,4.29-10.52,4.99-1.94,8.49-.51,10.53,4.29,11.17,26.87,20.59,46.39,28.25,58.58,1.38,2.4,2.61,4.46,3.67,6.16,1.06,1.71,1.96,3.12,2.7,4.22l23.4-68.96c1.66-5.08,5.03-6.74,10.11-4.99,5.08,1.75,6.74,5.12,4.99,10.11-4.34,12.83-8.68,25.64-13.02,38.43-4.34,12.79-8.63,25.55-12.88,38.29-.92,2.4-2.49,4.06-4.71,4.99-8.5,3.14-17.82-3.46-27.97-19.8-8.31-13.48-18.1-33.74-29.36-60.79Z"/><path d="M2212.36,781.2c-3.51-2.95-6.28-5.86-8.31-8.72-.19,1.11-.28,1.99-.28,2.63-.46,4.62-.05,9.05,1.25,13.29,1.57,5.36,4.52,10.06,8.86,14.13,4.34,4.06,10.15,6.51,17.45,7.34,6,.83,11.26.92,15.79.28,4.99-.55,9-2.12,12.05-4.71.28-.18.51-.37.69-.55l.69-.69c3.88-3.69,7.62-3.6,11.22.28,3.79,3.88,3.74,7.71-.14,11.49-.28.46-.69.88-1.25,1.25-.28.28-.53.51-.76.69-.23.19-.39.32-.48.42-5.54,4.52-12.23,7.2-20.08,8.03-5.08.55-11.59.51-19.53-.14-10.99-1.29-19.76-5.05-26.31-11.29-6.56-6.23-11.08-13.45-13.57-21.67-1.85-6.46-2.49-12.97-1.94-19.53.55-6.65,2.35-12.88,5.4-18.7,3.6-6.92,8.86-12.55,15.79-16.9,6.92-4.34,15.42-6.09,25.48-5.26,18,1.57,29.64,7.94,34.9,19.11,2.12,4.89,2.77,9.74,1.94,14.54-.55,4.43-2.31,8.72-5.26,12.88-3.32,4.62-7.75,8.24-13.29,10.87s-11.59,3.35-18.14,2.15c-7.94-1.48-15.33-5.21-22.16-11.22ZM2212.64,755.58c1.85,4.71,5.17,9.05,9.97,13.02,4.8,4.15,9.69,6.69,14.68,7.62,6.55,1.29,11.82-.88,15.79-6.51,1.2-1.66,1.98-3.55,2.35-5.68.18-1.66-.05-3.32-.69-4.99-2.49-5.35-9.69-8.59-21.6-9.69-8.31-.74-15.14,1.34-20.5,6.23Z"/></svg>